<svg width="70" height="49" viewBox="0 0 70 49" fill="none" xmlns="http://www.w3.org/2000/svg">
<path fill-rule="evenodd" clip-rule="evenodd" d="M20.2631 0H28.7405L35.136 10.603L37.8095 6.01115H66.4368L70 13.4415L49.0214 49H40.9081L35.0791 38.785L32.0863 43.2621H4.40664L0 36.1875L20.2631 0ZM33.8572 36.6722L30.9133 41.0762H5.62533L3.24262 37.2509H28.7115L31.5915 32.8866L33.8572 36.6722ZM30.3436 30.8016L28.091 27.0379L25.5261 31.0576H9.51061L26.2228 2.18587H21.5495L3.13889 35.0651H27.5301L30.3436 30.8016ZM28.1403 3.2454L34.2155 13.3173L37.5022 18.6894L41.1524 24.787L44.1056 29.7475L41.5524 34.0137L28.1545 11.2893L17.0148 28.8717H13.3067L28.1403 3.2454ZM19.6074 28.8717H24.3229L26.8483 24.914L24.6493 20.9138L19.6074 28.8717ZM25.9877 18.8014L29.0721 24.4124L36.0996 36.154L41.5554 45.715L56.627 19.855H52.5784L41.5383 38.3023L28.0872 15.4876L25.9877 18.8014ZM50.0259 19.855H46.0015L43.3696 24.2297L45.3834 27.6123L50.0259 19.855ZM42.0957 22.0986L44.7605 17.6691H60.4361L43.4499 46.8141H47.7679L66.8435 14.4814H42.1382L39.7325 18.1509L42.0957 22.0986ZM38.4724 16.0786L40.9526 12.2955H67.0209L65.0555 8.19703H39.0713L36.428 12.7371L38.4724 16.0786Z" fill="white"/>
</svg>
