<svg width="40" height="40" viewBox="0 0 40 40" fill="none" xmlns="http://www.w3.org/2000/svg">
<path d="M15.8333 12.9167C15.2808 12.9167 14.7509 13.1362 14.3602 13.5269C13.9695 13.9176 13.75 14.4475 13.75 15V16.6667C13.75 19.2083 14.7597 21.6459 16.5569 23.4431C18.3541 25.2403 20.7917 26.25 23.3333 26.25H25C25.5525 26.25 26.0824 26.0305 26.4732 25.6398C26.8639 25.2491 27.0833 24.7192 27.0833 24.1667C27.0833 23.6141 26.8639 23.0842 26.4732 22.6935C26.0824 22.3028 25.5525 22.0833 25 22.0833H23.3333C22.7808 22.0833 22.2509 22.3028 21.8602 22.6935C21.6384 22.9153 21.4718 23.182 21.3692 23.4722C20.2289 23.1431 19.1789 22.5296 18.3247 21.6753C17.4704 20.8211 16.8569 19.7711 16.5278 18.6309C16.818 18.5282 17.0847 18.3616 17.3065 18.1398C17.6972 17.7491 17.9167 17.2192 17.9167 16.6667V15C17.9167 14.4475 17.6972 13.9176 17.3065 13.5269C16.9158 13.1362 16.3859 12.9167 15.8333 12.9167Z" fill="#F4F4F6"/>
<path fill-rule="evenodd" clip-rule="evenodd" d="M5.23633 36.2275C5.11193 36.2516 4.98321 36.2569 4.8545 36.2418C4.52283 36.203 4.22246 36.0322 4.01885 35.7748C3.91318 35.6413 3.83357 35.4844 3.78918 35.3106C3.75133 35.1636 3.74001 35.009 3.75818 34.8544C3.77321 34.7257 3.80814 34.6017 3.8603 34.4863L6.33112 28.7959C4.33159 25.6759 3.45461 21.9587 3.85917 18.2609C4.28957 14.3267 6.14092 10.6848 9.06578 8.01868C11.9906 5.35257 15.7879 3.84549 19.7451 3.78028C23.7022 3.71508 27.5471 5.09622 30.5582 7.66453C33.5693 10.2328 35.5396 13.8117 36.0994 17.7296C36.6592 21.6474 35.77 25.6349 33.5986 28.9437C31.4272 32.2525 28.1229 34.6551 24.3059 35.7007C20.6227 36.7096 16.7064 36.3881 13.2427 34.8006L5.23633 36.2275ZM19.7862 6.27994C23.1346 6.22477 26.3879 7.39343 28.9358 9.56661C31.4837 11.7398 33.1509 14.7681 33.6245 18.0832C34.0982 21.3983 33.3458 24.7723 31.5085 27.5721C29.6711 30.3718 26.8752 32.4048 23.6454 33.2895C20.4156 34.1743 16.974 33.8499 13.9664 32.3773C13.728 32.2606 13.4587 32.2228 13.1974 32.2693L7.07462 33.3605L8.89659 29.1645C9.07022 28.7646 9.02298 28.3031 8.77191 27.9467C6.84334 25.2091 5.98015 21.8616 6.34434 18.5327C6.70853 15.2038 8.27505 12.1222 10.7499 9.86628C13.2248 7.61034 16.4379 6.33512 19.7862 6.27994Z" fill="#F4F4F6"/>
</svg>
