<svg width="40" height="40" viewBox="0 0 40 40" fill="none" xmlns="http://www.w3.org/2000/svg">
<path fill-rule="evenodd" clip-rule="evenodd" d="M21.6667 5.41663C22.357 5.41663 22.9167 5.97627 22.9167 6.66663C22.9167 8.54524 23.663 10.3469 24.9913 11.6753C26.3197 13.0037 28.1214 13.75 30 13.75C30.6904 13.75 31.25 14.3096 31.25 15C31.25 15.6903 30.6904 16.25 30 16.25C27.4584 16.25 25.0208 15.2403 23.2236 13.4431C23.1186 13.3381 23.0163 13.2309 22.9167 13.1216V26.6666C22.9167 28.2324 22.4524 29.763 21.5825 31.0649C20.7126 32.3668 19.4762 33.3815 18.0296 33.9807C16.583 34.5799 14.9912 34.7366 13.4555 34.4312C11.9199 34.1257 10.5092 33.3717 9.40208 32.2646C8.29492 31.1574 7.54093 29.7468 7.23546 28.2111C6.93 26.6754 7.08677 25.0836 7.68597 23.637C8.28516 22.1905 9.29986 20.9541 10.6017 20.0842C11.9036 19.2143 13.4342 18.75 15 18.75C15.6904 18.75 16.25 19.3096 16.25 20C16.25 20.6903 15.6904 21.25 15 21.25C13.9287 21.25 12.8814 21.5676 11.9907 22.1628C11.0999 22.758 10.4056 23.604 9.99567 24.5938C9.58569 25.5835 9.47842 26.6726 9.68743 27.7234C9.89643 28.7741 10.4123 29.7393 11.1699 30.4968C11.9274 31.2543 12.8925 31.7702 13.9433 31.9792C14.994 32.1882 16.0831 32.0809 17.0729 31.671C18.0626 31.261 18.9086 30.5667 19.5038 29.676C20.099 28.7852 20.4167 27.7379 20.4167 26.6666V6.66663C20.4167 5.97627 20.9763 5.41663 21.6667 5.41663Z" fill="#F4F4F6"/>
</svg>
