<svg width="40" height="40" viewBox="0 0 40 40" fill="none" xmlns="http://www.w3.org/2000/svg">
<path fill-rule="evenodd" clip-rule="evenodd" d="M13.75 20C13.75 16.5482 16.5482 13.75 20 13.75C23.4518 13.75 26.25 16.5482 26.25 20C26.25 23.4517 23.4518 26.25 20 26.25C16.5482 26.25 13.75 23.4517 13.75 20ZM20 16.25C17.9289 16.25 16.25 17.9289 16.25 20C16.25 22.071 17.9289 23.75 20 23.75C22.0711 23.75 23.75 22.071 23.75 20C23.75 17.9289 22.0711 16.25 20 16.25Z" fill="#F4F4F6"/>
<path d="M28.75 12.5C28.75 11.8096 28.1903 11.25 27.5 11.25C26.8096 11.25 26.25 11.8096 26.25 12.5C26.25 13.1903 26.8096 13.7516 27.5 13.7516C28.1903 13.7516 28.75 13.1903 28.75 12.5Z" fill="#F4F4F6"/>
<path fill-rule="evenodd" clip-rule="evenodd" d="M5.41666 13.3333C5.41666 8.96104 8.96107 5.41663 13.3333 5.41663H26.6667C31.0389 5.41663 34.5833 8.96104 34.5833 13.3333V26.6666C34.5833 31.0389 31.0389 34.5833 26.6667 34.5833H13.3333C8.96107 34.5833 5.41666 31.0389 5.41666 26.6666V13.3333ZM13.3333 7.91663C10.3418 7.91663 7.91666 10.3418 7.91666 13.3333V26.6666C7.91666 29.6582 10.3418 32.0833 13.3333 32.0833H26.6667C29.6582 32.0833 32.0833 29.6582 32.0833 26.6666V13.3333C32.0833 10.3418 29.6582 7.91663 26.6667 7.91663H13.3333Z" fill="#F4F4F6"/>
</svg>
