<svg width="40" height="40" viewBox="0 0 40 40" fill="none" xmlns="http://www.w3.org/2000/svg">
<path d="M13.3333 17.0833C14.0237 17.0833 14.5833 17.6429 14.5833 18.3333V26.6666C14.5833 27.357 14.0237 27.9166 13.3333 27.9166C12.643 27.9166 12.0833 27.357 12.0833 26.6666V18.3333C12.0833 17.6429 12.643 17.0833 13.3333 17.0833Z" fill="#F4F4F6"/>
<path d="M14.5833 13.3333C14.5833 12.6429 14.0237 12.0833 13.3333 12.0833C12.643 12.0833 12.0833 12.6429 12.0833 13.3333V13.35C12.0833 14.0403 12.643 14.6 13.3333 14.6C14.0237 14.6 14.5833 14.0403 14.5833 13.35V13.3333Z" fill="#F4F4F6"/>
<path d="M21.0675 17.6826C20.8479 17.3232 20.452 17.0833 20 17.0833C19.3096 17.0833 18.75 17.6429 18.75 18.3333V26.6666C18.75 27.357 19.3096 27.9166 20 27.9166C20.6903 27.9166 21.25 27.357 21.25 26.6666V21.6666C21.25 21.1141 21.4695 20.5842 21.8602 20.1935C22.2509 19.8028 22.7808 19.5833 23.3333 19.5833C23.8859 19.5833 24.4158 19.8028 24.8065 20.1935C25.1972 20.5842 25.4167 21.1141 25.4167 21.6666V26.6666C25.4167 27.357 25.9763 27.9166 26.6667 27.9166C27.357 27.9166 27.9167 27.357 27.9167 26.6666V21.6666C27.9167 20.451 27.4338 19.2853 26.5742 18.4257C25.7147 17.5662 24.5489 17.0833 23.3333 17.0833C22.5319 17.0833 21.7521 17.2932 21.0675 17.6826Z" fill="#F4F4F6"/>
<path fill-rule="evenodd" clip-rule="evenodd" d="M5.41666 9.99996C5.41666 7.46865 7.46868 5.41663 9.99999 5.41663H30C32.5313 5.41663 34.5833 7.46865 34.5833 9.99996V30C34.5833 32.5313 32.5313 34.5833 30 34.5833H9.99999C7.46868 34.5833 5.41666 32.5313 5.41666 30V9.99996ZM9.99999 7.91663C8.8494 7.91663 7.91666 8.84937 7.91666 9.99996V30C7.91666 31.1506 8.8494 32.0833 9.99999 32.0833H30C31.1506 32.0833 32.0833 31.1506 32.0833 30V9.99996C32.0833 8.84937 31.1506 7.91663 30 7.91663H9.99999Z" fill="#F4F4F6"/>
</svg>
