<svg width="24" height="24" viewBox="0 0 24 24" fill="none" xmlns="http://www.w3.org/2000/svg">
<path fill-rule="evenodd" clip-rule="evenodd" d="M12.624 2.58397C12.4849 2.37533 12.2508 2.25 12 2.25C11.7492 2.25 11.5151 2.37533 11.376 2.58397L5.37596 11.584C5.29231 11.7095 5.25032 11.8539 5.25 11.9983C5.24968 12.1439 5.29167 12.2896 5.37596 12.416L11.376 21.416C11.5151 21.6247 11.7492 21.75 12 21.75C12.2508 21.75 12.4849 21.6247 12.624 21.416L18.6218 12.4194C18.6838 12.3275 18.7256 12.2217 18.7421 12.1085C18.7448 12.0901 18.7468 12.0717 18.7481 12.0532C18.7548 11.9598 18.7438 11.8679 18.7176 11.7817C18.6957 11.71 18.6634 11.6422 18.6217 11.5805L12.624 2.58397ZM15.8094 10.0662L12 4.35208L8.1906 10.0662L11.6646 8.32918C11.8757 8.22361 12.1243 8.22361 12.3354 8.32918L15.8094 10.0662ZM7.83656 13.4028L12 19.6479L16.1634 13.4028L12.2372 14.7115C12.0832 14.7628 11.9168 14.7628 11.7628 14.7115L7.83656 13.4028ZM12 13.2094L7.95492 11.8611L12 9.83853L16.0451 11.8611L12 13.2094Z" fill="#F4F4F6"/>
</svg>
